<svg id="Capa_1" enable-background="new 0 0 512 512" viewBox="0 0 512 512" width="70" xmlns="http://www.w3.org/2000/svg"><g><path d="m432.29 125.61c2.812 2.813 6.628 4.394 10.606 4.394s7.794-1.58 10.606-4.394l44.589-44.589c8.97-8.962 13.909-20.881 13.909-33.563 0-12.683-4.939-24.602-13.918-33.572-14.869-14.831-37.274-17.837-55.177-8.679-17.907-9.186-40.328-6.176-55.205 8.688-8.969 8.962-13.908 20.881-13.908 33.563s4.939 24.601 13.904 33.558z"></path><path d="m375.971 240.494c-15.699-10.82-34.708-17.166-55.174-17.166-2.11 0-4.202.089-6.284.223-14.317 54.732-64.089 95.121-123.309 95.121-70.399 0-127.469-57.07-127.469-127.469s57.07-127.469 127.469-127.469c36.088 0 68.667 15.002 91.857 39.103 12.309-2.131 24.922-3.244 37.736-3.244 13.628 0 27.063 1.239 40.189 3.635-31.839-61.326-95.91-103.228-169.783-103.228-105.598 0-191.203 85.605-191.203 191.203s85.605 191.203 191.203 191.203c88.554.001 163.029-60.204 184.768-141.912z"></path><path d="m320.797 129.593c-88.551 0-163.027 60.201-184.768 141.906 15.698 10.823 34.706 17.173 55.174 17.173 2.111 0 4.203-.087 6.283-.222 14.317-54.732 64.09-95.122 123.311-95.122 70.399 0 127.469 57.07 127.469 127.469s-57.07 127.469-127.469 127.469c-36.082 0-68.653-15-91.843-39.095-12.377 2.136-24.998 3.236-37.751 3.236-13.628 0-27.065-1.233-40.19-3.633 31.839 61.325 95.911 103.226 169.784 103.226 105.598 0 191.203-85.605 191.203-191.203s-85.605-191.204-191.203-191.204z"></path></g></svg>