<svg id="Capa_1" enable-background="new 0 0 512 512" viewBox="0 0 512 512" width="70" xmlns="http://www.w3.org/2000/svg"><g><g><path d="m158.897 395.997v-23.446c-5.817-1.059-11.705-1.792-17.655-1.792-53.539 0-97.103 43.564-97.103 97.103v44.138h194.207v-39.415l-59.789-39.865c-12.316-8.201-19.66-21.928-19.66-36.723z"></path><path d="m379.586 211.862h-35.31c-11.158 0-20.727-6.938-24.62-16.728-11.237 3.063-19.518 13.365-19.518 25.556v44.138c0 19.474 15.837 35.31 35.31 35.31h17.655c19.474 0 35.31-15.837 35.31-35.31v-44.138c.001-4.873-3.954-8.828-8.827-8.828z"></path><path d="m414.897 229.517h-8.828v17.655h8.828c4.873 0 8.828-3.955 8.828-8.828-.001-4.872-3.956-8.827-8.828-8.827z"></path><path d="m256 459.034h176.552v-88.276h-176.552zm26.483-52.965c0-4.873 3.955-8.828 8.828-8.828h105.931c4.873 0 8.828 3.955 8.828 8.828v17.655c0 4.873-3.955 8.828-8.828 8.828h-105.932c-4.873 0-8.828-3.955-8.828-8.828v-17.655z"></path><path d="m382.958 17.655 8.828-17.655h-95.02l8.827 17.655z"></path><path d="m0 220.69c0 9.737 7.918 17.655 17.655 17.655v-35.31c-9.737-.001-17.655 7.918-17.655 17.655z"></path><path d="m132.414 353.103h8.828c5.932 0 11.82.609 17.655 1.51v-31.815c-5.42 2.375-11.352 3.822-17.655 3.822-24.373 0-44.138-19.765-44.138-44.138v-8.828h61.793v-105.93h-61.794c-16.119 0-29.599-10.911-33.81-25.697-15.969 3.39-27.983 17.567-27.983 34.525v79.448c0 53.539 43.564 97.103 97.104 97.103zm-79.448-132.413c0-19.474 15.837-35.31 35.31-35.31s35.31 15.837 35.31 35.31v8.828h-17.655v-8.828c0-9.737-7.918-17.655-17.655-17.655s-17.655 7.918-17.655 17.655v8.828h-17.655z"></path><path d="m97.103 97.103h17.655v17.655h-17.655c-9.737 0-17.655 7.918-17.655 17.655s7.918 17.655 17.655 17.655h61.793v-105.93h-26.483c-27.471-.009-54.713-8.218-77.639-23.261l-17.813 22.917c-23.834 30.631-36.961 68.89-36.961 107.705 0 12.35 3.222 24.285 9.057 35.063 2.763-.697 5.614-1.183 8.598-1.183v-8.828c0-26.562 19.668-48.552 45.197-52.33 3.717-15.518 17.611-27.118 34.251-27.118z"></path><path d="m264.828 238.345c0 4.873 3.955 8.828 8.828 8.828h8.828v-17.655h-8.828c-4.874-.001-8.828 3.954-8.828 8.827z"></path><path d="m416.283 212.003c4.793-8.775 7.442-18.511 7.442-28.584 0-32.989-26.845-59.833-59.833-59.833h-3.478c-15.907 0-31.514-5.641-43.785-15.642l-14.098 8.051c-23.252 13.294-37.703 38.188-37.703 64.971 0 10.628 2.092 21.248 5.897 31.197.98-.115 1.924-.3 2.931-.3h9.79c3.619-17.682 17.779-31.576 35.646-34.666 3.452-10.611 13.436-18.3 25.185-18.3h8.828v17.655h-8.828c-4.873 0-8.828 3.955-8.828 8.828s3.955 8.828 8.828 8.828h35.31c11.494 0 21.204 7.406 24.858 17.655h10.452c.476-.001.918.114 1.386.14z"></path><path d="m476.69 70.621h-264.828v282.483h264.845zm-247.173 17.655h52.966v17.655h-35.31v35.31h-17.655v-52.965zm52.966 247.172h-52.966v-52.966h17.655v35.31h35.31v17.656zm70.62-17.655h-17.655c-29.21 0-52.966-23.755-52.966-52.966h-8.828c-14.601 0-26.483-11.882-26.483-26.483 0-7.23 2.922-13.78 7.636-18.556-4.917-12.323-7.636-25.565-7.636-38.824 0-33.103 17.849-63.876 46.601-80.305l25.494-14.566 4.767 4.767c9.578 9.578 22.837 15.069 36.378 15.069h3.478c42.726 0 77.489 34.763 77.489 77.489 0 12.429-3.09 24.47-8.73 35.407 5.323 4.855 8.73 11.767 8.73 19.518 0 14.601-11.882 26.483-26.483 26.483h-8.828c.002 29.212-23.753 52.967-52.964 52.967zm105.931 17.655h-52.966v-17.655h35.31v-35.31h17.655v52.965zm0-194.207h-17.655v-35.31h-35.31v-17.655h52.966v52.965z"></path><path d="m485.517 0h-73.993l-17.655 35.31h-99.187l-17.655-35.31h-73.993c-14.601 0-26.483 11.882-26.483 26.483v369.514c0 8.872 4.405 17.108 11.794 22.034l49.999 33.342v-80.614h-26.483c-9.737 0-17.655-7.918-17.655-17.655v-282.483c0-9.737 7.918-17.655 17.655-17.655h264.829c9.737 0 17.655 7.918 17.655 17.655v282.483c0 9.737-7.918 17.655-17.655 17.655h-26.483v80.614l49.999-33.333c7.389-4.926 11.794-13.171 11.794-22.042v-369.515c0-14.601-11.882-26.483-26.483-26.483zm-282.483 35.31c-4.873 0-8.828-3.955-8.828-8.828s3.955-8.828 8.828-8.828 8.828 3.955 8.828 8.828-3.955 8.828-8.828 8.828zm35.311 0c-4.873 0-8.828-3.955-8.828-8.828s3.955-8.828 8.828-8.828 8.828 3.955 8.828 8.828-3.955 8.828-8.828 8.828z"></path></g></g></svg>