<svg version="1.1" width="70" id="Capa_1" xmlns="http://www.w3.org/2000/svg" xmlns:xlink="http://www.w3.org/1999/xlink" x="0px" y="0px" viewBox="0 0 512 512" style="enable-background:new 0 0 512 512;" xml:space="preserve">
<g>
	<g>
		<path d="M436.307,75.693c-23.394-23.408-50.669-41.792-81.05-54.639l-11.689,27.627c26.807,11.338,50.874,27.554,71.528,48.223
			c20.67,20.654,36.885,44.721,48.223,71.528l27.627-11.689C478.099,126.362,459.716,99.087,436.307,75.693z"></path>
	</g>
</g>
<g>
	<g>
		<path d="M156.742,21.053c-30.381,12.847-57.656,31.23-81.05,54.639c-23.408,23.394-41.792,50.669-54.639,81.05l27.627,11.689
			c11.339-26.806,27.554-50.873,48.223-71.528c20.654-20.669,44.722-36.885,71.528-48.223L156.742,21.053z"></path>
	</g>
</g>
<g>
	<g>
		<path d="M96.904,415.096c-20.67-20.654-36.885-44.721-48.223-71.528l-27.627,11.689c12.847,30.381,31.23,57.656,54.639,81.05
			c23.394,23.408,50.669,41.792,81.05,54.639l11.689-27.627C141.625,451.981,117.558,435.765,96.904,415.096z"></path>
	</g>
</g>
<g>
	<g>
		<path d="M463.32,343.569c-11.339,26.806-27.554,50.873-48.223,71.528c-20.654,20.669-44.722,36.885-71.528,48.223l11.689,27.627
			c30.381-12.847,57.656-31.23,81.05-54.639c23.408-23.394,41.792-50.669,54.639-81.05L463.32,343.569z"></path>
	</g>
</g>
<g>
	<g>
		<path d="M324.306,187.694L256,0l-68.306,187.694L0,256l187.694,68.306L256,512l68.306-187.694L512,256L324.306,187.694z M256,301
			c-24.814,0-45-20.186-45-45c0-24.814,20.186-45,45-45c24.814,0,45,20.186,45,45C301,280.814,280.814,301,256,301z"></path>
	</g>
</g>
<g>
	<g>
		<polygon points="102.938,102.938 129.115,178.153 164.491,164.491 178.153,129.115 		"></polygon>
	</g>
</g>
<g>
	<g>
		<polygon points="164.491,347.509 129.115,333.847 102.938,409.062 178.153,382.883 		"></polygon>
	</g>
</g>
<g>
	<g>
		<polygon points="382.885,333.847 347.509,347.509 333.847,382.883 409.062,409.062 		"></polygon>
	</g>
</g>
<g>
	<g>
		<polygon points="333.847,129.115 347.509,164.491 382.885,178.153 409.062,102.938 		"></polygon>
	</g>
</g>
<g>
</g>
<g>
</g>
<g>
</g>
<g>
</g>
<g>
</g>
<g>
</g>
<g>
</g>
<g>
</g>
<g>
</g>
<g>
</g>
<g>
</g>
<g>
</g>
<g>
</g>
<g>
</g>
<g>
</g>
</svg>