<svg id="Capa_1" enable-background="new 0 0 512 512" viewBox="0 0 512 512" width="70" xmlns="http://www.w3.org/2000/svg"><g><path d="m256 346c-24.901 0-45 20.099-45 45 0 24.485 20.112 45 45 45 57.9 0 105-47.1 105-105 0-29.401-12.001-55.8-31.5-74.7.899 4.799 1.5 9.598 1.5 14.7 0 41.4-33.6 75-75 75zm15 60h-30v-30h30z"></path><path d="m0 512h512v-362h-512zm256-316c74.399 0 135 60.599 135 135 0 74.399-60.601 135-135 135s-135-60.601-135-135c0-74.401 60.601-135 135-135z"></path><path d="m181 391c0-41.4 33.6-75 75-75 24.901 0 45-20.101 45-45 0-24.49-20.11-45-45-45-57.9 0-105 47.1-105 105 0 29.399 12.001 55.8 31.5 74.7-.899-4.801-1.5-9.601-1.5-14.7zm60-135h30v30h-30z"></path><path d="m61 0h30v30h-30z"></path><path d="m181 0h30v30h-30z"></path><path d="m421 0h30v30h-30z"></path><path d="m512 30v90h-512v-90h61v45h30v-45h90v45h30v-45h90v45h30v-45h90v45h30v-45z"></path><path d="m301 0h30v30h-30z"></path></g></svg>