<svg viewBox="0 0 50 56" width="60" xmlns="http://www.w3.org/2000/svg"><path id="Shape" d="m12.23 9.8 3.544 2.1c1.3190156-1.3793741 2.9353675-2.4396134 4.726-3.1l-1.652-3.68c-2.5432796 1.01796418-4.8106466 2.62136061-6.618 4.68z"></path><path id="Shape" d="m49.962 44.433c-3.137-3.6-7.941-4.888-10.774-5.35-1.2137497.9545003-2.5203082 1.7846675-3.9 2.478 1.2369125.7813891 2.3832654 1.6976665 3.418 2.732.3789722.3923789.3735524 1.0160848-.0121814 1.4018186s-1.0094397.3911536-1.4018186.0121814c-1.2563349-1.2622115-2.6983428-2.3248323-4.276-3.151-2.2496295.8385339-4.6173233 1.3174047-7.016 1.419v4.025c0 .5522847-.4477153 1-1 1s-1-.4477153-1-1v-4.025c-2.3990143-.1014909-4.7670536-.5803633-7.017-1.419-1.5776572.8261677-3.0196651 1.8887885-4.276 3.151-.3923789.3789722-1.0160848.3735524-1.4018186-.0121814s-.3911536-1.0094397-.0121814-1.4018186c1.0347346-1.0343335 2.1810875-1.9506109 3.418-2.732-1.3797227-.6928864-2.6862923-1.5227256-3.9-2.477-2.828.471-7.617 1.774-10.74 5.354-.03413451.0361429-.04526219.0883056-.02884854.1352318s.05762809.0807808.10684854.0877682c3.265.112 9.46.975 14.3 5.487 4.806 4.49 8.545 5.536 9.95 5.779.3970549.0686448.8029451.0686448 1.2 0 1.4-.244 5.138-1.291 9.932-5.778 4.839-4.511 11.068-5.375 14.35-5.488.051872-.0045272.0963314-.0389077.1137624-.0879726.0174309-.0490648.004627-.1037889-.0327624-.1400274z"></path><path id="Shape" d="m25 0c-11.5979797 0-21 9.40202025-21 21 0 11.5979797 9.4020203 21 21 21s21-9.4020203 21-21c-.0132259-11.59249698-9.407503-20.98677409-21-21zm-2.655 9.6c-.2101808.4935355-.614672.8784895-1.118 1.064-1.5281909.5623686-2.9127307 1.4564793-4.054 2.618-.6343723.6617097-1.641461.7981165-2.429.329l-3.567-2.141c-.4956977-.297572-.833791-.7997671-.923-1.371-.0908552-.58314826.0824914-1.17648488.473-1.619 2.0306688-2.31949931 4.5955296-4.10971934 7.473-5.216.9716431-.3661784 2.0598076.09326883 2.475 1.045l1.656 3.733c.2193931.49516521.2244594 1.05897218.014 1.558zm20.655 10.4c.5522847 0 1 .4477153 1 1-.0115735 10.4886126-8.5113874 18.9884265-19 19-.5522847 0-1-.4477153-1-1s.4477153-1 1-1c9.3845001-.010471 16.989529-7.6154999 17-17 0-.5522847.4477153-1 1-1z"></path></svg>